<?xml version="1.0" encoding="UTF-8" standalone="no" ?>
<!DOCTYPE svg PUBLIC "-//W3C//DTD SVG 1.1//EN" "http://www.w3.org/Graphics/SVG/1.1/DTD/svg11.dtd">
<svg xmlns="http://www.w3.org/2000/svg" xmlns:xlink="http://www.w3.org/1999/xlink" version="1.1" width="500" height="500" viewBox="48.33 48.33 500 500" xml:space="preserve">
<desc>Created with Fabric.js 5.2.4</desc>
<defs>
</defs>
<g transform="matrix(Infinity NaN NaN Infinity 0 0)" id="b0dad0d7-cb21-4ef8-af79-57137c7d1c06"  >
</g>
<g transform="matrix(1 0 0 1 250 250)" id="354cd32a-c055-493b-9de4-4daeafb307b2"  >
<rect style="stroke: none; stroke-width: 1; stroke-dasharray: none; stroke-linecap: butt; stroke-dashoffset: 0; stroke-linejoin: miter; stroke-miterlimit: 4; fill: rgb(255,255,255); fill-rule: nonzero; opacity: 1; visibility: hidden;" vector-effect="non-scaling-stroke"  x="-250" y="-250" rx="0" ry="0" width="500" height="500" />
</g>
<g transform="matrix(0.46 0 0 0.46 301.25 296.46)"  >
<path style="stroke: none; stroke-width: 0; stroke-dasharray: none; stroke-linecap: butt; stroke-dashoffset: 0; stroke-linejoin: miter; stroke-miterlimit: 4; fill: rgb(0,0,0); fill-rule: nonzero; opacity: 1;" vector-effect="non-scaling-stroke"  transform=" translate(-227.12, -155.73)" d="M 408.39 146.24 C 414.55 185.48000000000002 383.55 220.79000000000002 324.44 241.86 C 328.8 236.45000000000002 332.01 232.42000000000002 334.91 227.99 C 338.92 221.87 342.33000000000004 214.98000000000002 341.99 207.69 C 341.69 201.1 338.34000000000003 194.19 332.92 190.75 C 326.98 186.97 318.56 187.36 312.24 190.53 C 304.24 194.54 299.61 203.02 293.96000000000004 212.67000000000002 C 293.55 211.13000000000002 293.14000000000004 209.60000000000002 292.57000000000005 208.13000000000002 C 291.71000000000004 205.95000000000002 290.49000000000007 203.90000000000003 289.01000000000005 202.07000000000002 C 287.04 199.62000000000003 284.61000000000007 197.55 281.85 196.03000000000003 C 277.5 193.63000000000002 272.34000000000003 192.61000000000004 267.34000000000003 193.14000000000004 C 263.86 193.50000000000006 260.46000000000004 194.61000000000004 257.58000000000004 196.44000000000005 C 253.72000000000003 198.88000000000005 250.78000000000003 202.60000000000005 248.18000000000004 206.47000000000006 C 243.69000000000003 213.13000000000005 240.23000000000005 220.22000000000006 237.27000000000004 227.52000000000007 C 233.28000000000003 237.33000000000007 230.20000000000005 247.53000000000006 227.12000000000003 257.7300000000001 C 224.04000000000002 247.5300000000001 220.96000000000004 237.33000000000007 216.98000000000002 227.52000000000007 C 214.01000000000002 220.22000000000006 210.55 213.13000000000005 206.06000000000003 206.47000000000006 C 203.46000000000004 202.60000000000005 200.52000000000004 198.88000000000005 196.67000000000002 196.44000000000005 C 193.78000000000003 194.61000000000004 190.38000000000002 193.50000000000006 186.9 193.14000000000004 C 181.9 192.61000000000004 176.74 193.63000000000005 172.39000000000001 196.03000000000003 C 169.63000000000002 197.55000000000004 167.20000000000002 199.62000000000003 165.23000000000002 202.07000000000002 C 163.75000000000003 203.90000000000003 162.53000000000003 205.95000000000002 161.67000000000002 208.13000000000002 C 161.10000000000002 209.60000000000002 160.69000000000003 211.13000000000002 160.28000000000003 212.67000000000002 C 154.63000000000002 203.02 150.00000000000003 194.54000000000002 142.00000000000003 190.53000000000003 C 135.68000000000004 187.36000000000004 127.26000000000003 186.97000000000003 121.32000000000002 190.75000000000003 C 115.91000000000003 194.19000000000003 112.55000000000003 201.10000000000002 112.25000000000003 207.69000000000003 C 111.91000000000003 214.98000000000002 115.32000000000002 221.87000000000003 119.33000000000003 227.99000000000004 C 122.23000000000003 232.42000000000004 125.44000000000003 236.45000000000005 129.80000000000004 241.86000000000004 C 70.69000000000004 220.80000000000004 39.69000000000004 185.49000000000004 45.85000000000004 146.25000000000006 C 52.02000000000004 107.01000000000005 93.55000000000004 75.31000000000006 158.31000000000003 60.42000000000006 C 153.59000000000003 66.10000000000005 150.95000000000002 69.43000000000006 148.54000000000002 73.09000000000006 C 144.73000000000002 78.86000000000006 141.48000000000002 85.44000000000005 140.64000000000001 92.32000000000006 C 139.89000000000001 98.43000000000006 141.04000000000002 104.78000000000006 144.22000000000003 110.18000000000006 C 147.09000000000003 115.06000000000006 151.62000000000003 119.15000000000006 156.83000000000004 121.74000000000007 C 162.61000000000004 124.61000000000007 169.22000000000003 125.63000000000007 175.30000000000004 124.48000000000006 C 178.91000000000005 123.80000000000005 182.32000000000005 122.36000000000006 185.17000000000004 120.25000000000006 C 192.35000000000005 114.93000000000006 195.88000000000005 105.39000000000006 197.79000000000005 96.25000000000006 C 199.24000000000004 89.33000000000006 199.76000000000005 82.64000000000006 200.35000000000005 75.88000000000005 C 201.04000000000005 68.06000000000006 201.83000000000004 60.15000000000005 202.74000000000004 53.730000000000054 C 207.69000000000003 58.830000000000055 211.88000000000005 64.58000000000006 215.20000000000005 70.86000000000006 C 219.18000000000004 70.88000000000005 223.15000000000003 70.89000000000006 227.12000000000003 70.90000000000006 C 231.09000000000003 70.89000000000006 235.07000000000002 70.88000000000007 239.04000000000002 70.86000000000006 C 242.36 64.58000000000006 246.55 58.830000000000055 251.50000000000003 53.73000000000006 C 252.41000000000003 60.15000000000006 253.20000000000002 68.06000000000006 253.89000000000001 75.88000000000005 C 254.48000000000002 82.64000000000006 255.01000000000002 89.33000000000006 256.45 96.25000000000006 C 258.36 105.39000000000006 261.89 114.93000000000006 269.07 120.25000000000006 C 271.92 122.36000000000006 275.33 123.80000000000005 278.94 124.48000000000006 C 285.02 125.63000000000007 291.63 124.61000000000006 297.40999999999997 121.74000000000007 C 302.61999999999995 119.15000000000006 307.15 115.06000000000006 310.02 110.18000000000006 C 313.2 104.78000000000006 314.35999999999996 98.43000000000006 313.59999999999997 92.32000000000006 C 312.76 85.44000000000007 309.51 78.86000000000007 305.7 73.09000000000006 C 303.31 69.47000000000006 300.71 66.16000000000005 295.93 60.41000000000006 C 360.69 75.31000000000006 402.22 107.00000000000006 408.39 146.24000000000007 Z" stroke-linecap="round" />
</g>
<g transform="matrix(0.46 0 0 0.46 301.25 296.25)"  >
<path style="stroke: none; stroke-width: 0; stroke-dasharray: none; stroke-linecap: butt; stroke-dashoffset: 0; stroke-linejoin: miter; stroke-miterlimit: 4; fill: rgb(0,0,0); fill-rule: nonzero; opacity: 1;" vector-effect="non-scaling-stroke"  transform=" translate(-227.12, -155.28)" d="M 227.12 22.18 C 344.54 22.18 439.72 81.77000000000001 439.72 155.28 C 439.72 228.79 344.54 288.37 227.12000000000003 288.37 C 109.70000000000005 288.37 14.52 228.78 14.52 155.28 C 14.52 81.78 109.71 22.18 227.12 22.18 Z M 428.09000000000003 155.28 C 428.09000000000003 88.2 338.11 33.82000000000001 227.12000000000003 33.81 C 116.13000000000004 33.81 26.150000000000034 88.19 26.150000000000034 155.28 C 26.150000000000034 222.37 116.13000000000004 276.74 227.12000000000003 276.74 C 338.11 276.74 428.09000000000003 222.36 428.09000000000003 155.28000000000003 Z" stroke-linecap="round" />
</g>
<g transform="matrix(0.46 0 0 0.46 301.25 296.25)"  >
<path style="stroke: none; stroke-width: 0; stroke-dasharray: none; stroke-linecap: butt; stroke-dashoffset: 0; stroke-linejoin: miter; stroke-miterlimit: 4; fill: rgb(253,243,8); fill-rule: nonzero; opacity: 1;" vector-effect="non-scaling-stroke"  transform=" translate(-227.12, -155.28)" d="M 227.12 33.81 C 338.11 33.82 428.09000000000003 88.2 428.09000000000003 155.28 C 428.09000000000003 222.36 338.11 276.74 227.12000000000003 276.74 C 116.13000000000005 276.74 26.15 222.36 26.15 155.28 C 26.15 88.19999999999999 116.13 33.81 227.12 33.81 Z M 324.44 241.86 C 383.55 220.79000000000002 414.55 185.48000000000002 408.39 146.24 C 402.21999999999997 107 360.69 75.31 295.93 60.41000000000001 C 300.71 66.16000000000001 303.31 69.47000000000001 305.7 73.09 C 309.51 78.86 312.76 85.44 313.59999999999997 92.32000000000001 C 314.35999999999996 98.43 313.2 104.78 310.02 110.18 C 307.15 115.06 302.62 119.15 297.40999999999997 121.74000000000001 C 291.63 124.61000000000001 285.02 125.63000000000001 278.93999999999994 124.48 C 275.3299999999999 123.8 271.91999999999996 122.36 269.06999999999994 120.25 C 261.88999999999993 114.93 258.35999999999996 105.39 256.44999999999993 96.25 C 255.00999999999993 89.33 254.47999999999993 82.64 253.88999999999993 75.88 C 253.19999999999993 68.06 252.40999999999994 60.14999999999999 251.49999999999994 53.73 C 246.54999999999995 58.83 242.35999999999996 64.58 239.03999999999994 70.86 C 235.06999999999994 70.88 231.08999999999995 70.89 227.11999999999995 70.9 C 223.14999999999995 70.89 219.17999999999995 70.88000000000001 215.19999999999996 70.86 C 211.87999999999997 64.58 207.68999999999997 58.83 202.73999999999995 53.730000000000004 C 201.82999999999996 60.150000000000006 201.03999999999996 68.06 200.34999999999997 75.88 C 199.75999999999996 82.64 199.23999999999995 89.33 197.78999999999996 96.25 C 195.87999999999997 105.39 192.34999999999997 114.93 185.16999999999996 120.25 C 182.31999999999996 122.36 178.90999999999997 123.8 175.29999999999995 124.48 C 169.21999999999994 125.63000000000001 162.60999999999996 124.61 156.82999999999996 121.74000000000001 C 151.61999999999995 119.15 147.08999999999995 115.06 144.21999999999997 110.18 C 141.03999999999996 104.78 139.88999999999996 98.43 140.63999999999996 92.32000000000001 C 141.47999999999996 85.44000000000001 144.72999999999996 78.86000000000001 148.53999999999996 73.09 C 150.94999999999996 69.43 153.58999999999997 66.10000000000001 158.30999999999997 60.42 C 93.54999999999997 75.31 52.01999999999997 107.01 45.84999999999998 146.25 C 39.68999999999998 185.49 70.68999999999998 220.8 129.79999999999998 241.86 C 125.43999999999998 236.45000000000002 122.22999999999999 232.42000000000002 119.32999999999998 227.99 C 115.31999999999998 221.87 111.90999999999998 214.98000000000002 112.24999999999999 207.69 C 112.54999999999998 201.1 115.90999999999998 194.19 121.32 190.75 C 127.25999999999999 186.97 135.68 187.36 142 190.53 C 150 194.54 154.63 203.02 160.28 212.67000000000002 C 160.69 211.13000000000002 161.1 209.60000000000002 161.67 208.13000000000002 C 162.53 205.95000000000002 163.75 203.90000000000003 165.23 202.07000000000002 C 167.2 199.62000000000003 169.63 197.55 172.39 196.03000000000003 C 176.73999999999998 193.63000000000002 181.89999999999998 192.61000000000004 186.89999999999998 193.14000000000004 C 190.37999999999997 193.50000000000006 193.77999999999997 194.61000000000004 196.67 196.44000000000005 C 200.51999999999998 198.88000000000005 203.45999999999998 202.60000000000005 206.06 206.47000000000006 C 210.55 213.13000000000005 214.01 220.22000000000006 216.98 227.52000000000007 C 220.95999999999998 237.33000000000007 224.04 247.53000000000006 227.12 257.7300000000001 C 230.20000000000002 247.5300000000001 233.28 237.33000000000007 237.27 227.52000000000007 C 240.23000000000002 220.22000000000006 243.69 213.13000000000005 248.18 206.47000000000006 C 250.78 202.60000000000005 253.72 198.88000000000005 257.58 196.44000000000005 C 260.46 194.61000000000004 263.85999999999996 193.50000000000006 267.34 193.14000000000004 C 272.34 192.61000000000004 277.5 193.63000000000005 281.84999999999997 196.03000000000003 C 284.60999999999996 197.55000000000004 287.03999999999996 199.62000000000003 289.01 202.07000000000002 C 290.49 203.90000000000003 291.71 205.95000000000002 292.57 208.13000000000002 C 293.14 209.60000000000002 293.55 211.13000000000002 293.96 212.67000000000002 C 299.60999999999996 203.02 304.23999999999995 194.54000000000002 312.24 190.53000000000003 C 318.56 187.36000000000004 326.98 186.97000000000003 332.92 190.75000000000003 C 338.34000000000003 194.19000000000003 341.69 201.10000000000002 341.99 207.69000000000003 C 342.33 214.98000000000002 338.92 221.87000000000003 334.91 227.99000000000004 C 332.01000000000005 232.42000000000004 328.8 236.45000000000005 324.44 241.86000000000004 Z" stroke-linecap="round" />
</g>
<g transform="matrix(0.46 0 0 0.46 408.83 601.38)" id="line11"  >
<line style="stroke: rgb(0,0,0); stroke-width: 0.71; stroke-dasharray: none; stroke-linecap: round; stroke-dashoffset: 0; stroke-linejoin: round; stroke-miterlimit: 4; fill: none; fill-rule: nonzero; opacity: 1;" vector-effect="non-scaling-stroke"  x1="0" y1="0" x2="0" y2="0" />
</g>
</svg>